<svg xmlns="http://www.w3.org/2000/svg" height="179.809" width="207.489"><path d="M22.892 116.816c-19.92-11.62-28.167 4.887-14.939 21.579 12.018 15.166 30.308 12.331 22.67-9.818 0 0 135.2-71.89 158.569-86.456 16-9.97 15.424-22.49 8.987-31.692-5.629-8.05-14.812-14.5-33.666-2.106C124.109 34.874 22.892 116.816 22.892 116.816z" fill="#fdbe2a" stroke="#3e4147" stroke-linecap="round" stroke-linejoin="round" stroke-width="3"/><path d="M22.892 116.816c-19.92-11.62-28.167 4.887-14.939 21.579 12.018 15.166 30.308 12.331 22.67-9.818 0 0 135.2-71.89 158.569-86.456 16-9.97 15.424-22.49 8.987-31.692-5.629-8.05-14.812-14.5-33.666-2.106C124.109 34.874 22.892 116.816 22.892 116.816z" fill="#fdbe2a" stroke="#3e4147" stroke-linecap="round" stroke-linejoin="round" stroke-width="3"/><path d="M108.296 49.435c-26.933 20.663-54.859 42.869-71.158 55.924a72.637 72.637 0 019.037 14.928c20.086-10.721 56.189-30.046 87.532-47.1-8.976-9.463-18.782-19.26-25.411-23.752z" fill="#e8a91b"/><g stroke-linecap="round" stroke-linejoin="round" transform="translate(-8226.66 -3024.417)"><path d="M8249.552 3141.233c-19.92-11.62-28.167 4.887-14.939 21.579 12.018 15.166 30.308 12.331 22.67-9.818 0 0 135.2-71.89 158.569-86.456 16-9.97 15.424-22.49 8.987-31.692-5.629-8.05-14.812-14.5-33.666-2.106-40.404 26.551-141.621 108.493-141.621 108.493z" fill="none" stroke="#3e4147" stroke-width="3"/><path d="M8248.117 3153.106c-6.587-9.5-15.429-11.5-19.826-7.618-.6 4.746 1.326 11.021 6.321 17.324 4.5 5.68 9.881 8.834 14.449 9.4 4.039-4.076 4.339-11.49-.944-19.106z" fill="#e8a91b" stroke="#3e4147" stroke-width="3"/><path d="M8385.878 3124.419c20.966 20.127 54.2 17.149 45.285 5.871-12.579-20.127-45.285-5.871-45.285-5.871z" fill="#8f4727" stroke="#3e4147" stroke-width="3"/><path d="M8393.426 3108.486c15.934 5.031 34.383 8.386 37.737 21.8-17.611-9.225-31.867 2.515-62.057 22.642s-59.541 2.516-60.381-26 71.283-32.699 84.701-18.442z" fill="#c35927" stroke="#3e4147" stroke-width="3"/><path d="M8278.537 3110.163c0-7.968 3.03-14.919 4.646-20.968 7.4-27.688 27.872-36.464 49.879-37.367 20.228-.83 45.27-.368 54.494 36.531 1.488 5.954 5.74 12.2 5.87 20.127-14.256 0-39.415 16.772-64.573 26.835s-45.303-10.557-50.316-25.158z" fill="#fff" stroke="#3e4147" stroke-width="3"/><path d="M8387.556 3088.359c-8.984-35.939-32.974-37.312-52.9-36.592-.115.039-.232.074-.348.113-31.2 9.033-25.465 37.629-23.812 85.71a34.6 34.6 0 0018.361-2.269c25.158-10.063 50.317-26.835 64.573-26.835-.13-7.923-4.386-14.173-5.874-20.127z" fill="#f3783c" stroke="#3e4147" stroke-width="3"/><ellipse cx="8334.303" cy="3051.879" fill="#fff" rx="11.321" ry="4.612" stroke="#3e4147" stroke-width="3"/><circle cx="8341.575" cy="3174.377" fill="#fff" r="28.349" stroke="#3e4147" stroke-width="3"/><path d="M8360.1 3152.93c-6.614 6.635 2.074 41.991 4.483 38M8318.94 3157.31c22.963-7.476 27.556 37.1 11.357 43.078M8331.55 3191.952l9.268 4.17M8332.958 3184.797l9.639-.778M8333.511 3176.481l8.731-3.498M8330.493 3168.711l7.832-6.052M8325.074 3160.879l6.131-6.771M8355.313 3165.363l6.501.983M8355.267 3156.493l5.883 2.936M8355.549 3175.32l6.357-1.39M8358.405 3185.923l5.457-3.369" fill="none" stroke="#f3783c" stroke-width="3.544"/><circle cx="8341.575" cy="3174.377" fill="none" r="28.349" stroke="#3e4147" stroke-width="3"/></g></svg>
