<?xml version="1.0" encoding="UTF-8"?> <!-- Generator: Adobe Illustrator 23.1.1, SVG Export Plug-In . SVG Version: 6.00 Build 0) --> <svg xmlns="http://www.w3.org/2000/svg" xmlns:xlink="http://www.w3.org/1999/xlink" id="Layer_1" x="0px" y="0px" viewBox="0 0 850.4 566.9" style="enable-background:new 0 0 850.4 566.9;" xml:space="preserve"> <style type="text/css"> .st0{fill:#FFFFFF;} .st1{fill:#231F20;} .st2{fill:#ED3024;} .st3{fill:#34445C;} .st4{font-family:'Effra-Bold';} .st5{font-size:7.7317px;} </style> <rect x="-0.2" y="0.3" class="st0" width="850.4" height="566.9"></rect> <g> <g> <g> <path class="st1" d="M318.3,270.7c0,2-1.6,4.7-4.7,4.7c-1.7,0-3.3-0.7-5.5-0.7c-2.4,0.1-3.8,1.4-3.8,4.8v20.9c0,2.8-2.1,5-4.9,5 c-2.7,0-4.9-2.2-4.9-5v-22.7c0-7.7,4.5-12.6,13-12.6c2.4,0,4.9,0.2,6.3,0.6C316.7,266.4,318.3,268.2,318.3,270.7z"></path> <path class="st1" d="M356,283.7c0,2.9-1.5,4.9-5.1,4.9h-19.6v0.7c0,4.7,3.5,7.2,8.5,7.2c2.7,0,5.4-0.7,7.9-1.6 c3.9-1.5,6.5,1.2,6.5,3.9c0,1.4-0.5,3-2.5,4.1c-2.7,1.6-7.5,2.6-12.2,2.6c-10.2,0-17.1-6.4-17.8-15.7c-0.2-2.9-0.1-6.9,0-9.2 c0.9-9.6,7.8-15.7,17.4-15.7c10,0,16.9,6.7,16.9,17.1V283.7z M345.6,282c0.5,0,0.8-0.3,0.8-0.9c0.2-4.5-2.6-7.5-7.4-7.5 c-5.2,0-7.8,3.3-7.8,8.4H345.6z"></path> <path class="st1" d="M396.5,272.6l-9.5,25.8c-1.8,4.7-4.9,7.2-8.9,7.2c-3.8,0-6.9-2.4-8.6-7l-9.5-26c-1.4-3.9,1.2-7.4,4.9-7.4 c2.4,0,4.2,1.6,4.9,3.9l7.8,24.4c0.1,0.4,0.4,0.5,0.6,0.5c0.1,0,0.4-0.1,0.5-0.5l7.8-24.3c0.7-2.4,2.8-4,5.1-4 C395.4,265.2,397.9,268.7,396.5,272.6z"></path> <path class="st1" d="M407.7,261.1c-3,0-5.2-2.5-5.2-5.4c0-3,2.2-5.2,5.2-5.2c2.9,0,5.2,2.3,5.2,5.2 C413,258.6,410.6,261.1,407.7,261.1z"></path> <path class="st1" d="M412.7,270.3v30c0,2.8-2.1,5.1-4.9,5.1c-2.7,0-4.9-2.3-4.9-5.1v-30c0-2.9,2.1-5.1,4.9-5.1 C410.5,265.2,412.7,267.4,412.7,270.3z"></path> <path class="st1" d="M455.9,283.7c0,2.9-1.5,4.9-5.1,4.9h-19.6v0.7c0,4.7,3.5,7.2,8.5,7.2c2.7,0,5.4-0.7,7.9-1.6 c3.9-1.5,6.5,1.2,6.5,3.9c0,1.4-0.5,3-2.5,4.1c-2.7,1.6-7.5,2.6-12.2,2.6c-10.2,0-17.1-6.4-17.8-15.7c-0.2-2.9-0.1-6.9,0-9.2 c0.9-9.6,7.8-15.7,17.4-15.7c10,0,16.9,6.7,16.9,17.1V283.7z M445.5,282c0.5,0,0.8-0.3,0.8-0.9c0.2-4.5-2.6-7.5-7.4-7.5 c-5.2,0-7.8,3.3-7.8,8.4H445.5z"></path> <path class="st1" d="M488.6,278.3c-0.1-0.2-0.2-0.3-0.4-0.3c-0.1,0-0.4,0.1-0.4,0.3l-4.9,20.2c-1.2,4.9-4.1,7.1-8,7.1 c-3.8,0-6.9-2.2-8-6.9l-6.8-26.5c-1-3.6,0.9-7,4.7-7c2.4,0,4.3,1.3,4.9,4.1l5.4,24.2c0.1,0.2,0.2,0.3,0.4,0.3 c0.1,0,0.3-0.1,0.4-0.3l5.2-22.1c0.9-3.6,3.4-6.2,7.3-6.2c3.5,0,6.4,2.5,7.3,6.2l5.2,22.1c0,0.2,0.2,0.3,0.4,0.3 c0.1,0,0.3-0.1,0.4-0.3l5.2-24.2c0.6-2.6,2.3-4.1,4.9-4.1c3.7,0,5.6,3.3,4.7,7l-6.7,26.5c-1.2,4.7-4.3,6.9-8.1,6.9 c-3.8,0-6.9-2.2-8-7L488.6,278.3z"></path> </g> <g> <path class="st2" d="M545.7,305.6c-3.2,0-5.7-0.6-8.4-1.8v11c0,2.9-2.2,5.1-4.9,5.1c-2.8,0-4.9-2.2-4.9-5.1v-42.5 c0-1.1,0.3-1.8,1.3-2.5c2.2-1.6,8.3-4.8,16.2-4.8c10.2,0,16.5,6.3,17.3,15.4c0.2,2.6,0.2,7.5,0,10.1 C561.4,299.6,555.6,305.6,545.7,305.6z M544.6,274.5c-2.7,0-6.1,1.3-7.3,2.2v17.4c1.2,0.8,4.4,2,7.5,2c4.9,0,7.2-2.6,7.5-7.1 c0.1-1.8,0.1-5.2,0-7.2C551.9,277.1,549.3,274.5,544.6,274.5z"></path> <path class="st2" d="M586.4,305.6c-9.7,0-17-6.2-17.7-15c-0.2-3-0.2-7.6,0-10.6c0.7-8.9,8-15.1,17.7-15.1 c9.7,0,16.9,6.2,17.6,15.1c0.2,3,0.2,7.5,0,10.5C603.3,299.4,596.2,305.6,586.4,305.6z M594.3,281.6c-0.2-4.2-3.2-7.2-7.8-7.2 c-4.7,0-7.5,3-7.9,7.2c-0.1,2-0.1,5.5,0,7.4c0.4,4.2,3.2,7.2,7.9,7.2c4.7,0,7.5-3,7.8-7.2C594.4,287,594.4,283.6,594.3,281.6z"></path> <path class="st2" d="M617.9,261.1c-3,0-5.2-2.5-5.2-5.4c0-3,2.2-5.2,5.2-5.2c2.9,0,5.2,2.3,5.2,5.2 C623.1,258.6,620.8,261.1,617.9,261.1z"></path> <path class="st2" d="M622.8,270.3v30c0,2.8-2.1,5.1-4.9,5.1c-2.7,0-4.9-2.3-4.9-5.1v-30c0-2.9,2.1-5.1,4.9-5.1 C620.6,265.2,622.8,267.4,622.8,270.3z"></path> <path class="st2" d="M666.8,300.3c0,2.8-2.1,5.1-4.9,5.1c-2.7,0-4.9-2.3-4.9-5.1v-18.7c0-4.8-3.3-6.9-7.2-6.9 c-3,0-5.8,0.9-7.2,1.8v23.8c0,2.8-2.1,5.1-4.9,5.1c-2.7,0-4.9-2.3-4.9-5.1v-27.6c0-1.8,0.5-2.7,1.8-3.6c2.3-1.6,7.8-4.1,15.7-4.1 c11.1,0,16.8,5.8,16.8,16.2V300.3z"></path> <path class="st2" d="M688.7,305.6c-9.2,0-13.3-6.3-13.3-14.5v-29.2c0-2.9,2.1-5.2,4.9-5.2c2.7,0,4.9,2.3,4.9,5.2v5h4.1 c2.4,0,4.6,1.8,4.6,4.4c0,2.4-2.1,4.3-4.6,4.3h-4.1v15.2c0,3.5,1.5,5.5,4.8,5.5c1.6,0,3.2-0.4,4.6-0.8c3.8-0.9,6.1,1.5,6.1,4.2 c0,1.6-0.8,3.3-3.1,4.4C695.1,305.2,691.5,305.6,688.7,305.6z"></path> </g> <text transform="matrix(1 0 0 1 690.6035 262.467)" class="st3 st4 st5">TM</text> </g> <g> <circle class="st2" cx="202.8" cy="282.3" r="69.7"></circle> <g> <g> <path class="st0" d="M166.1,316.6h29l0-34.8c0-3.7,1.8-6.1,2.9-7.2c1-1,3.1-2.7,6.2-2.7c3.9,0,6.3,2.7,7.1,3.8 c4.7,6.4,13.8,7.9,20.2,3.2c6.4-4.7,7.9-13.8,3.2-20.2c-7.2-9.8-18.5-15.7-30.5-15.7c-10.3,0-19.9,4.1-27.1,11.6 c-7.1,7.3-11,17-11,27.3L166.1,316.6z"></path> </g> </g> <text transform="matrix(1 0 0 1 229.5684 249.2932)" class="st0 st4 st5">TM</text> <circle class="st0" cx="223.4" cy="303.3" r="14.4"></circle> </g> </g> </svg> 